<svg id="Layer_1" data-name="Layer 1" xmlns="http://www.w3.org/2000/svg" viewBox="0 0 500 180"><defs><style>.cls-1{fill:#213a94;}</style></defs><path class="cls-1" d="M43.82,60.51h9.37L76.34,17.89C78.91,12.2,85,6.5,91.59,6.5h12.12c5.33,0,10.11,5,10.11,10.84a10.44,10.44,0,0,1-10.11,10.1H98.94L80.2,57.57c-4.41,7.17-5.33,7.72-5.33,7.72v.55A20.53,20.53,0,0,1,86.81,76L107,116.73h4.78c5.32,0,10.1,5,10.1,10.29,0,5.88-4.78,10.66-10.1,10.66H105c-9.74,0-14-1.29-18.19-9.74L65.68,85.68c-2.2-4.22-6.24-4.41-11.39-4.41H43.82v35.46h3.31a10.48,10.48,0,0,1,0,21H15.71a10.11,10.11,0,0,1-10.1-10.29c0-5.88,4.22-10.66,10.1-10.66h4.78V27.44H15.71a10.44,10.44,0,0,1-10.1-10.1c0-5.88,4.77-10.84,10.1-10.84H32.25A11.45,11.45,0,0,1,43.82,17.71Z"/><path class="cls-1" d="M120.41,88.25a51.71,51.71,0,0,1,51.81-51.62c28.3,0,51.08,23.51,51.08,51.44a51.45,51.45,0,1,1-102.89.18Zm80.84.37c0-16-12.68-29.94-29-29.94-16.16,0-29.76,13-29.76,29.39,0,16.17,12.49,30.13,29.21,30.13A29.56,29.56,0,0,0,201.25,88.62Z"/><path class="cls-1" d="M276,166.89a10.53,10.53,0,0,1-9.37,6.61H251.72c-5.33,0-10.11-4.78-10.11-10.66a10.45,10.45,0,0,1,10.11-10.1h6.61l6.07-15.06L234.08,60.51h-2.94c-5.33,0-10.1-5-10.1-10.29,0-5.87,4.77-10.65,10.1-10.65H244a10.55,10.55,0,0,1,9.74,7.72l22.05,65.58h.73l22.05-65.58a10.53,10.53,0,0,1,9.73-7.72h12.86c5.33,0,10.11,4.78,10.11,10.65,0,5.33-4.78,10.29-10.11,10.29h-2.93Z"/><path class="cls-1" d="M419.45,137.68A10.59,10.59,0,0,1,409,127.2v-2.57c-7.16,10.66-18.74,15.62-31.23,15.62-28.48,0-50.71-23.52-50.71-50.89C327,60.7,350.38,37,379,37c12.49,0,22.78,5.69,29.94,16.53V48.2a11.39,11.39,0,1,1,22.78,0v68.53h4.41A10.49,10.49,0,0,1,446.28,127c0,5.88-4.78,10.66-10.11,10.66Zm-10.1-49.61c0-16-13.41-29.21-29.58-29.21-16.72,0-29.58,13.78-29.58,30.5,0,15.43,13.41,29,29,29C396.49,118.38,409.35,104.79,409.35,88.07Z"/><path class="cls-1" d="M456,27.44h-4.78c-5.33,0-10.1-5-10.1-10.28,0-5.88,4.77-10.66,10.1-10.66h15.62a11.45,11.45,0,0,1,11.57,11.21l.18,99h5.15a10.48,10.48,0,1,1,0,21H467.39A11.33,11.33,0,0,1,456,126.28Z"/></svg>